<svg viewBox="0 0 90.06 85.13">
  <path d="M89.73,4.9A7,7,0,0,0,80.93.33h0a44.69,44.69,0,0,0-5.16,2.05c-1.57.7-3,1.49-4.52,2.24L66.93,7.09c-1.41.83-2.74,1.76-4.1,2.63l-2,1.33-1.94,1.43L55,15.35q-3.73,3-7.37,6.11-3.42,3-6.62,6.15c-.76-.91-1.52-1.82-2.29-2.72C33,18.31,27.15,12,21,6S13.6,1.33,19,8,29.57,21.48,34.42,28.55C35.2,29.67,36,30.82,36.71,32A221.28,221.28,0,0,0,22,49.18C14.27,59,7.7,69.56,1.35,80.17c-3,5.4-.52,6.92,2.95,1.88C11.55,72.19,19,62.47,27.37,53.72c4.58-4.89,9.35-9.6,14.33-14Q44.93,45,47.93,50.35A233.22,233.22,0,0,1,59.09,73.29l.08.19a4.87,4.87,0,0,0,.28.56A5.36,5.36,0,0,0,67,76a6,6,0,0,0,1.9-8A240.23,240.23,0,0,0,54.8,45.54q-3.75-5.32-7.73-10.44,3.48-2.84,7.1-5.46c2.44-1.7,4.9-3.36,7.35-5l3.79-2.26,1.89-1.14,1.93-1c1.29-.66,2.56-1.39,3.87-2l3.91-1.78c1.31-.49,2.63-1.07,3.92-1.5a31.87,31.87,0,0,1,3.52-1.05,8.15,8.15,0,0,0,.82-.2A7,7,0,0,0,89.73,4.9Z"/>
</svg>
