<svg viewBox="0 0 91.99 98.53">
  <path d="M92,17.67c-.24-.49-8,1.55-11.27,2.55-9.53,3-18.66,5.82-26.84,9.4,1.6-7.23,3.19-15,4.85-23.71V5.8a5,5,0,0,0-9.87-1.6C46.94,16,45.19,25.65,43.36,34.52,32.42,40.06,24.05,45.42,17,51.37A64.33,64.33,0,0,0,5.93,63.31a38.7,38.7,0,0,0-4.09,7.41A22.93,22.93,0,0,0,0,79.59a22.43,22.43,0,0,0,2.22,8.88,18.77,18.77,0,0,0,5.94,7.34,14.74,14.74,0,0,0,8.58,2.72c.36,0,.73,0,1.09,0a19.33,19.33,0,0,0,4.69-.91,26.2,26.2,0,0,0,4.27-1.79,21.17,21.17,0,0,0,6.78-6.57A53.9,53.9,0,0,0,37.78,82,125.26,125.26,0,0,0,43.8,67c3-8.75,5.59-18.13,8.49-30.41l.27-1.21,0-.2c8.9-4.37,18-8.46,28.42-12.63C84.94,21,92.23,18.18,92,17.67ZM42,40.8c-2,9.1-4,16.68-6.14,23.65a120.19,120.19,0,0,1-5.26,14.1,45.54,45.54,0,0,1-3.42,6.3C25.76,87,24.27,89.21,23,90a10.41,10.41,0,0,1-5.74,1.26A9.22,9.22,0,0,1,12.2,90a12.34,12.34,0,0,1-5.57-9.46,22.45,22.45,0,0,1,1.19-7.49,32.72,32.72,0,0,1,3.23-6.29,58,58,0,0,1,9.77-11.08A118.85,118.85,0,0,1,42,40.8Z"/>
</svg>
